# Blender v3.0.0 OBJ File: ''
# www.blender.org
mtllib leaves.mtl
o Cylinder
v 0.000000 -1.000000 -1.000000
v 0.000000 1.000000 -1.000000
v 0.951057 -1.000000 -0.309017
v 0.951057 1.000000 -0.309017
v 0.587785 -1.000000 0.809017
v 0.587785 1.000000 0.809017
v -0.587785 -1.000000 0.809017
v -0.587785 1.000000 0.809017
v -0.951056 -1.000000 -0.309017
v -0.951056 1.000000 -0.309017
v -0.160240 1.000000 -0.883579
v 0.907369 1.000000 -0.174560
v 0.631473 1.000000 0.674560
v -0.587785 1.000000 0.809017
v -0.790816 1.000000 -0.425438
v 0.000000 8.395146 -1.000000
v 0.951057 8.395146 -0.309017
v 0.587786 8.395146 0.809017
v -0.587785 8.395146 0.809017
v -0.951056 8.395146 -0.309017
v 0.172069 14.943893 -2.160103
v 0.435327 14.943893 -1.968834
v 0.334771 14.943893 -1.659355
v 0.009366 14.943893 -1.659355
v -0.091190 14.943893 -1.968834
v -0.587785 6.728211 0.809017
v -1.124752 6.973591 -0.372959
v 0.925575 7.459974 -0.666605
v 0.587785 6.728211 0.809017
v 0.000000 6.728211 -1.000000
v 1.003753 9.751362 4.339605
v 0.891637 9.751362 3.994545
v 1.478688 9.751362 3.994545
v 1.366571 9.751362 4.339606
v 1.185162 9.751362 3.781286
v 0.259134 13.920222 6.521528
v 0.157340 13.920222 6.208238
v 0.690341 13.920222 6.208238
v 0.588547 13.920222 6.521528
v 0.423840 13.920222 6.014615
v -0.173640 17.296432 3.070271
v -0.275434 17.296432 2.756981
v 0.257566 17.296432 2.756981
v 0.155772 17.296432 3.070271
v -0.008934 17.296432 2.563357
v -0.710029 10.230806 -0.774276
v 0.048232 10.230806 -1.325185
v 0.516864 10.230806 0.117115
v -0.420399 10.230806 0.117115
v 0.806494 10.230806 -0.774275
v -0.726604 11.426629 -3.265113
v -0.310228 11.426629 -3.567627
v -0.052894 11.426629 -2.775634
v -0.567563 11.426629 -2.775634
v 0.106148 11.426629 -3.265113
v -3.333509 13.651789 -3.234000
v -2.917134 13.651789 -3.536514
v -2.659799 13.651789 -2.744521
v -3.174468 13.651789 -2.744521
v -2.500758 13.651789 -3.234000
v -2.674395 18.040995 -0.073704
v -2.339141 18.040995 -0.317280
v -2.131944 18.040995 0.320409
v -2.546340 18.040995 0.320409
v -2.003889 18.040995 -0.073704
v -0.951056 4.888443 -0.309017
v 0.723184 4.854014 0.524632
v 0.000000 4.888443 -1.000000
v -0.580871 5.074459 0.591820
v 0.951057 4.888443 -0.309017
v 2.148720 5.999817 -1.934476
v 2.750887 5.999817 -1.496975
v 2.520880 5.999817 -2.204866
v 2.162388 6.220262 -1.429787
v 2.893040 5.999817 -1.934475
v 3.940386 9.984058 -2.035681
v 4.391628 9.984058 -1.707834
v 4.219269 9.984058 -2.238302
v 4.046910 9.984058 -1.707834
v 4.498152 9.984058 -2.035681
v 4.024134 11.203479 -2.008470
v 4.339869 11.203479 -1.779075
v 4.219269 11.203479 -2.150243
v 4.098669 11.203479 -1.779075
v 4.414404 11.203479 -2.008470
v 3.609053 10.773985 -3.141117
v 3.945210 10.773985 -2.896885
v 3.816809 10.773985 -3.292061
v 3.688409 10.773985 -2.896885
v 4.024566 10.773985 -3.141117
v 3.331083 8.145238 1.566210
v 2.950596 8.390617 0.865832
v 4.207063 8.145238 0.929774
v 4.000272 8.145238 1.566210
v 3.665678 8.145238 0.536434
v 5.198054 13.297829 2.829939
v 5.343087 13.297829 2.935312
v 5.287689 13.297829 3.105808
v 5.108418 13.297829 3.105808
v 5.053020 13.297829 2.935312
v 4.670640 14.573681 2.513530
v 4.815673 14.573681 2.618903
v 4.760275 14.573681 2.789400
v 4.581004 14.573681 2.789400
v 4.525606 14.573681 2.618903
v -4.440467 7.027200 1.832918
v -4.603957 7.027200 1.329745
v -3.773391 7.758964 0.972157
v -3.911400 7.027200 1.832918
v -4.175933 7.027200 1.018767
v -6.521056 11.701070 0.563363
v -6.149179 11.701070 0.833547
v -6.291224 11.701070 1.270714
v -6.750889 11.701070 1.270714
v -6.892933 11.701070 0.833547
v -6.521056 13.725999 0.710316
v -6.288940 13.725999 0.878958
v -6.377601 13.725999 1.151827
v -6.664513 13.725999 1.151827
v -6.753172 13.725999 0.878958
vt 1.000000 0.500000
vt 1.000000 1.000000
vt 0.800000 1.000000
vt 0.800000 0.500000
vt 0.600000 1.000000
vt 0.600000 0.500000
vt 0.400000 1.000000
vt 0.400000 0.500000
vt 0.800000 1.000000
vt 0.600000 1.000000
vt 0.200000 1.000000
vt 0.200000 0.500000
vt 0.000000 1.000000
vt 0.000000 0.500000
vt 0.750000 0.490000
vt 0.978254 0.324164
vt 0.891068 0.055836
vt 0.608932 0.055836
vt 0.521746 0.324164
vt 0.200000 1.000000
vt 0.400000 1.000000
vt 0.400000 1.000000
vt 0.200000 1.000000
vt 0.200000 1.000000
vt 0.000000 1.000000
vt 1.000000 1.000000
vt 0.400000 1.000000
vt 0.000000 1.000000
vt 0.200000 1.000000
vt 0.200000 1.000000
vt 0.000000 1.000000
vt 0.600000 1.000000
vt 0.800000 1.000000
vt 0.800000 1.000000
vt 0.600000 1.000000
vt 0.000000 1.000000
vt 0.000000 1.000000
vt 1.000000 1.000000
vt 1.000000 1.000000
vt 0.478254 0.324164
vt 0.250000 0.490000
vt 0.021746 0.324164
vt 0.108932 0.055836
vt 0.391068 0.055836
vt 0.400000 1.000000
vt 0.600000 1.000000
vt 0.600000 1.000000
vt 0.400000 1.000000
vt 0.800000 1.000000
vt 1.000000 1.000000
vt 1.000000 1.000000
vt 0.800000 1.000000
vt 0.800000 1.000000
vt 1.000000 1.000000
vt 0.400000 1.000000
vt 0.600000 1.000000
vt 0.000000 1.000000
vt 0.200000 1.000000
vt 0.400000 1.000000
vt 0.200000 1.000000
vt 0.000000 1.000000
vt 1.000000 1.000000
vt 0.800000 1.000000
vt 0.600000 1.000000
vt 0.400000 1.000000
vt 0.200000 1.000000
vt 0.800000 1.000000
vt 1.000000 1.000000
vt 1.000000 1.000000
vt 0.800000 1.000000
vt 0.000000 1.000000
vt 0.600000 1.000000
vt 0.000000 1.000000
vt 0.200000 1.000000
vt 0.400000 1.000000
vt 0.600000 1.000000
vt 0.200000 1.000000
vt 0.000000 1.000000
vt 1.000000 1.000000
vt 0.800000 1.000000
vt 0.600000 1.000000
vt 0.400000 1.000000
vt 0.600000 1.000000
vt 0.400000 1.000000
vt 0.200000 1.000000
vt 0.000000 1.000000
vt 1.000000 1.000000
vt 0.800000 1.000000
vt 0.200000 1.000000
vt 0.000000 1.000000
vt 0.800000 1.000000
vt 1.000000 1.000000
vt 0.400000 1.000000
vt 0.600000 1.000000
vt 0.600000 1.000000
vt 0.400000 1.000000
vt 0.800000 1.000000
vt 1.000000 1.000000
vt 0.200000 1.000000
vt 0.000000 1.000000
vt 0.600000 1.000000
vt 0.400000 1.000000
vt 0.800000 1.000000
vt 1.000000 1.000000
vt 1.000000 1.000000
vt 0.800000 1.000000
vt 0.200000 1.000000
vt 0.000000 1.000000
vt 0.400000 1.000000
vt 0.600000 1.000000
vt 0.200000 1.000000
vt 0.000000 1.000000
vt 0.800000 1.000000
vt 1.000000 1.000000
vt 0.000000 1.000000
vt 0.200000 1.000000
vt 0.400000 1.000000
vt 0.600000 1.000000
vt 0.800000 1.000000
vt 1.000000 1.000000
vt 0.600000 1.000000
vt 0.400000 1.000000
vt 0.200000 1.000000
vt 0.000000 1.000000
vt 0.200000 1.000000
vt 0.400000 1.000000
vt 1.000000 1.000000
vt 0.800000 1.000000
vt 0.800000 1.000000
vt 1.000000 1.000000
vt 0.000000 1.000000
vt 0.600000 1.000000
vt 0.000000 1.000000
vt 0.600000 1.000000
vt 0.400000 1.000000
vt 0.200000 1.000000
vt 1.000000 1.000000
vt 0.800000 1.000000
vt 0.600000 1.000000
vt 0.400000 1.000000
vt 0.200000 1.000000
vt 0.000000 1.000000
vt 0.400000 1.000000
vt 0.200000 1.000000
vt 0.800000 1.000000
vt 1.000000 1.000000
vt 1.000000 1.000000
vt 0.800000 1.000000
vt 0.000000 1.000000
vt 0.600000 1.000000
vt 0.000000 1.000000
vt 0.200000 1.000000
vt 0.400000 1.000000
vt 0.600000 1.000000
vn 0.5878 0.0000 -0.8090
vn 0.9511 0.0000 0.3090
vn -0.0000 0.0000 1.0000
vn -0.9511 0.0000 0.3090
vn -0.5878 0.0000 -0.8090
vn 0.0000 -1.0000 0.0000
vn -0.9287 0.0446 0.3682
vn 0.0000 1.0000 0.0000
vn -0.5830 -0.1268 -0.8025
vn 0.9675 -0.0437 0.2492
vn -0.5314 0.0474 -0.8458
vn 0.4399 0.1180 -0.8902
vn -0.0000 0.3527 0.9357
vn 0.5805 -0.1568 -0.7990
vn -0.9320 0.1991 0.3028
vn 0.9401 0.1515 0.3055
vn 0.4981 -0.0672 -0.8645
vn 0.0144 -0.1402 0.9900
vn -0.5388 -0.0376 -0.8416
vn 0.9675 0.0391 0.2500
vn -0.9158 -0.0605 0.3971
vn -0.9179 0.0326 0.3954
vn -0.1440 0.8578 -0.4935
vn -0.3220 0.8492 -0.4187
vn 0.9284 -0.3620 0.0839
vn -0.0000 -0.7596 0.6504
vn -0.9027 -0.3148 0.2933
vn 0.4699 -0.6008 -0.6467
vn -0.5588 0.3100 -0.7692
vn 0.5170 0.4757 -0.7116
vn 0.9509 0.0158 0.3090
vn 0.0000 -0.4637 0.8860
vn 0.8712 0.4010 0.2831
vn 0.0000 0.7148 0.6993
vn -0.9337 0.1904 0.3034
vn -0.4364 -0.6699 -0.6006
vn -0.2989 -0.8611 -0.4114
vn 0.3514 -0.8016 -0.4837
vn 0.6087 0.7684 0.1978
vn 0.0000 0.9241 0.3820
vn -0.8045 0.5333 0.2614
vn 0.0000 -0.0140 0.9999
vn -0.6339 -0.7455 0.2060
vn -0.4867 -0.5608 -0.6698
vn 0.4815 0.5734 -0.6628
vn 0.6366 0.7429 0.2068
vn -0.4881 0.5571 -0.6719
vn 0.5224 0.4585 -0.7190
vn 0.9031 -0.3135 0.2934
vn 0.0000 -0.5725 0.8199
vn -0.9481 -0.0794 0.3080
vn -0.9654 -0.0153 0.2605
vn 0.9580 -0.0062 0.2867
vn 0.0835 0.0451 0.9955
vn 0.5694 -0.0414 -0.8210
vn 0.2145 0.7193 0.6608
vn 0.5892 -0.7939 0.1500
vn 0.2423 -0.9111 -0.3335
vn -0.5348 0.4150 -0.7361
vn -0.4316 0.8912 -0.1399
vn 0.0782 0.0273 0.9966
vn 0.5868 0.0583 -0.8076
vn 0.8904 -0.3514 0.2893
vn 0.5692 -0.2492 -0.7835
vn -0.5711 0.2368 -0.7860
vn -0.9030 0.4293 0.0167
vn -0.5868 0.0583 -0.8076
vn -0.9494 0.0583 0.3085
vn 0.0000 0.0583 0.9983
vn 0.9494 0.0583 0.3085
vn -0.4635 0.6149 0.6380
vn 0.3451 0.8095 0.4750
vn 0.9505 -0.0335 -0.3088
vn 0.0000 -0.8329 -0.5534
vn -0.6716 -0.7080 -0.2182
vn 0.3494 0.2070 -0.9138
vn -0.3620 0.9057 0.2205
vn 0.0000 0.4713 -0.8820
vn 0.3938 -0.8243 -0.4068
vn 0.0871 -0.8083 0.5823
vn 0.8635 -0.1616 -0.4777
vn -0.5873 -0.0423 0.8083
vn 0.2892 -0.4669 0.8357
vn -0.5779 -0.1822 0.7955
vn -0.9032 0.3133 -0.2935
vn 0.0000 0.2863 -0.9581
vn -0.8608 -0.4252 -0.2797
vn 0.0000 -0.2407 -0.9706
vn 0.9067 0.3018 -0.2946
vn 0.5373 0.4055 0.7395
vn -0.3144 0.4492 -0.8363
vn 0.2116 0.8083 0.5494
vn -0.0000 -0.9599 0.2803
vn -0.0877 -0.9903 -0.1077
vn 0.2885 -0.6944 0.6592
vn -0.8728 -0.3973 0.2836
vn 0.5868 0.0586 -0.8076
vn -0.5506 -0.3501 -0.7578
vn 0.2267 0.0572 -0.9723
vn 0.7759 0.4631 0.4285
vn 0.0000 0.1194 0.9928
vn 0.9494 0.0586 0.3085
vn 0.0000 0.0586 0.9983
vn -0.9494 0.0586 0.3085
vn -0.5868 0.0586 -0.8076
usemtl None
s off
f 1/1/1 2/2/1 4/3/1 3/4/1
f 3/4/2 4/3/2 6/5/2 5/6/2
f 5/6/3 6/5/3 8/7/3 7/8/3
f 6/5/3 4/3/3 12/9/3 13/10/3
f 7/8/4 8/7/4 10/11/4 9/12/4
f 9/12/5 10/11/5 2/13/5 1/14/5
f 1/15/6 3/16/6 5/17/6 7/18/6 9/19/6
f 27/20/7 26/21/7 19/22/7 20/23/7
f 2/13/6 10/11/6 15/24/6 11/25/6
f 4/3/8 2/2/8 11/26/8 12/9/8
f 8/7/8 6/5/8 13/10/8 14/27/8
f 10/11/8 8/7/8 14/27/8 15/24/8
f 47/28/9 46/29/9 25/30/9 21/31/9
f 29/32/10 28/33/10 17/34/10 18/35/10
f 30/36/11 27/20/11 20/23/11 16/37/11
f 26/21/3 29/32/3 18/35/3 19/22/3
f 28/33/12 30/38/12 16/39/12 17/34/12
f 22/40/8 21/41/8 25/42/8 24/43/8 23/44/8
f 49/45/13 48/46/13 23/47/13 24/48/13
f 50/49/14 47/50/14 21/51/14 22/52/14
f 46/29/15 49/45/15 24/48/15 25/30/15
f 48/46/16 50/49/16 22/52/16 23/47/16
f 70/53/17 68/54/17 30/38/17 28/33/17
f 69/55/18 67/56/18 29/32/18 26/21/18
f 68/57/19 66/58/19 27/20/19 30/36/19
f 67/56/20 70/53/20 28/33/20 29/32/20
f 66/58/21 69/55/21 26/21/21 27/20/21
f 27/20/22 26/21/22 31/59/22 32/60/22
f 30/36/23 27/20/23 32/60/23 35/61/23
f 28/33/24 30/38/24 35/62/24 33/63/24
f 29/32/25 28/33/25 33/63/25 34/64/25
f 26/21/26 29/32/26 34/64/26 31/59/26
f 32/60/27 31/59/27 36/65/27 37/66/27
f 38/67/28 40/68/28 45/69/28 43/70/28
f 35/61/29 32/60/29 37/66/29 40/71/29
f 33/63/30 35/62/30 40/68/30 38/67/30
f 34/64/31 33/63/31 38/67/31 39/72/31
f 31/59/32 34/64/32 39/72/32 36/65/32
f 45/73/8 42/74/8 41/75/8 44/76/8 43/70/8
f 39/72/33 38/67/33 43/70/33 44/76/33
f 36/65/34 39/72/34 44/76/34 41/75/34
f 37/66/35 36/65/35 41/75/35 42/74/35
f 40/71/36 37/66/36 42/74/36 45/73/36
f 18/35/16 17/34/16 50/49/16 48/46/16
f 20/23/15 19/22/15 49/45/15 46/29/15
f 17/34/14 16/39/14 47/50/14 50/49/14
f 19/22/13 18/35/13 48/46/13 49/45/13
f 16/37/9 20/23/9 46/29/9 47/28/9
f 47/28/37 46/29/37 51/77/37 52/78/37
f 50/49/38 47/50/38 52/79/38 55/80/38
f 48/46/39 50/49/39 55/80/39 53/81/39
f 49/45/40 48/46/40 53/81/40 54/82/40
f 46/29/41 49/45/41 54/82/41 51/77/41
f 54/82/42 53/81/42 58/83/42 59/84/42
f 51/77/43 54/82/43 59/84/43 56/85/43
f 52/78/44 51/77/44 56/85/44 57/86/44
f 55/80/45 52/79/45 57/87/45 60/88/45
f 53/81/46 55/80/46 60/88/46 58/83/46
f 57/86/47 56/85/47 61/89/47 62/90/47
f 65/91/8 62/92/8 61/89/8 64/93/8 63/94/8
f 60/88/48 57/87/48 62/92/48 65/91/48
f 58/83/49 60/88/49 65/91/49 63/94/49
f 59/84/50 58/83/50 63/94/50 64/93/50
f 56/85/51 59/84/51 64/93/51 61/89/51
f 15/24/52 14/27/52 69/55/52 66/58/52
f 13/10/53 12/9/53 70/53/53 67/56/53
f 11/25/5 15/24/5 66/58/5 68/57/5
f 14/27/54 13/10/54 67/56/54 69/55/54
f 12/9/55 11/26/55 68/54/55 70/53/55
f 69/55/56 67/56/56 72/95/56 74/96/56
f 67/56/57 70/53/57 75/97/57 72/95/57
f 70/53/58 68/54/58 73/98/58 75/97/58
f 68/57/59 66/58/59 71/99/59 73/100/59
f 66/58/60 69/55/60 74/96/60 71/99/60
f 74/96/61 72/95/61 77/101/61 79/102/61
f 80/103/62 78/104/62 83/105/62 85/106/62
f 72/95/63 75/97/63 80/103/63 77/101/63
f 75/97/64 73/98/64 78/104/64 80/103/64
f 73/100/65 71/99/65 76/107/65 78/108/65
f 71/99/66 74/96/66 79/102/66 76/107/66
f 84/109/8 82/110/8 85/106/8 83/105/8 81/111/8
f 78/108/67 76/107/67 81/111/67 83/112/67
f 76/107/68 79/102/68 84/109/68 81/111/68
f 79/102/69 77/101/69 82/110/69 84/109/69
f 77/101/70 80/103/70 85/106/70 82/110/70
f 78/104/71 80/103/71 90/113/71 88/114/71
f 76/107/72 78/108/72 88/115/72 86/116/72
f 79/102/73 76/107/73 86/116/73 89/117/73
f 77/101/74 79/102/74 89/117/74 87/118/74
f 80/103/75 77/101/75 87/118/75 90/113/75
f 89/117/6 86/116/6 88/114/6 90/113/6 87/118/6
f 30/38/76 28/33/76 93/119/76 95/120/76
f 28/33/77 29/32/77 94/121/77 93/119/77
f 29/32/78 26/21/78 91/122/78 94/121/78
f 26/21/79 27/20/79 92/123/79 91/122/79
f 27/20/80 30/36/80 95/124/80 92/123/80
f 91/122/81 92/123/81 100/125/81 99/126/81
f 96/127/82 97/128/82 102/129/82 101/130/82
f 92/123/83 95/124/83 96/131/83 100/125/83
f 95/120/84 93/119/84 97/128/84 96/127/84
f 93/119/85 94/121/85 98/132/85 97/128/85
f 94/121/86 91/122/86 99/126/86 98/132/86
f 101/133/6 102/129/6 103/134/6 104/135/6 105/136/6
f 97/128/87 98/132/87 103/134/87 102/129/87
f 98/132/88 99/126/88 104/135/88 103/134/88
f 99/126/89 100/125/89 105/136/89 104/135/89
f 100/125/90 96/131/90 101/133/90 105/136/90
f 28/33/91 30/38/91 110/137/91 108/138/91
f 29/32/92 28/33/92 108/138/92 109/139/92
f 26/21/93 29/32/93 109/139/93 106/140/93
f 27/20/94 26/21/94 106/140/94 107/141/94
f 30/36/95 27/20/95 107/141/95 110/142/95
f 107/141/96 106/140/96 114/143/96 115/144/96
f 112/145/97 111/146/97 116/147/97 117/148/97
f 110/142/98 107/141/98 115/144/98 111/149/98
f 108/138/99 110/137/99 111/146/99 112/145/99
f 109/139/100 108/138/100 112/145/100 113/150/100
f 106/140/101 109/139/101 113/150/101 114/143/101
f 116/151/8 120/152/8 119/153/8 118/154/8 117/148/8
f 113/150/102 112/145/102 117/148/102 118/154/102
f 114/143/103 113/150/103 118/154/103 119/153/103
f 115/144/104 114/143/104 119/153/104 120/152/104
f 111/149/105 115/144/105 120/152/105 116/151/105
o Icosphere
v -2.093231 11.198456 -0.678939
v 1.436035 16.046122 1.606701
v -3.236043 12.428818 5.514595
v -8.042353 9.617687 1.134797
v -6.969238 8.840486 -4.834212
v -0.482669 15.470673 -5.188261
v -2.331876 17.461397 4.833086
v -9.693138 13.987320 6.277943
v -12.240480 10.754643 0.128745
v -5.051344 15.054251 -6.644146
v -0.630122 19.341423 -1.781688
v -6.194158 16.284611 -0.450613
vt 0.181819 0.000000
vt 0.272728 0.157461
vt 0.090910 0.157461
vt 0.363637 0.000000
vt 0.454546 0.157461
vt 0.909091 0.000000
vt 1.000000 0.157461
vt 0.818182 0.157461
vt 0.727273 0.000000
vt 0.636364 0.157461
vt 0.545455 0.000000
vt 0.363637 0.314921
vt 0.181819 0.314921
vt 0.909091 0.314921
vt 0.727273 0.314921
vt 0.545455 0.314921
vt 0.000000 0.314921
vt 0.272728 0.472382
vt 0.090910 0.472382
vt 0.818182 0.472382
vt 0.636364 0.472382
vt 0.454546 0.472382
vn 0.7179 -0.6455 0.2607
vn 0.8343 -0.5169 -0.1918
vn 0.3171 -0.9173 0.2407
vn 0.3026 -0.9366 0.1764
vn 0.6481 -0.6548 -0.3889
vn 0.9163 0.2838 -0.2828
vn 0.6475 -0.0131 0.7619
vn -0.1135 -0.7748 0.6219
vn -0.2773 -0.9578 0.0749
vn 0.3131 -0.3534 -0.8815
vn 0.5807 0.7315 0.3573
vn 0.1423 0.1077 0.9839
vn -0.3383 -0.7680 0.5439
vn -0.6856 -0.0004 -0.7280
vn 0.1748 0.6542 -0.7358
vn -0.4523 0.8817 0.1342
vn -0.4091 0.9073 0.0970
vn -0.6767 0.7291 -0.1030
vn -0.6649 0.6996 -0.2617
vn -0.5119 0.8196 -0.2573
usemtl None
s off
f 121/155/106 122/156/106 123/157/106
f 122/156/107 121/158/107 126/159/107
f 121/160/108 123/161/108 124/162/108
f 121/163/109 124/162/109 125/164/109
f 121/165/110 125/164/110 126/159/110
f 122/156/111 126/159/111 131/166/111
f 123/157/112 122/156/112 127/167/112
f 124/162/113 123/161/113 128/168/113
f 125/164/114 124/162/114 129/169/114
f 126/159/115 125/164/115 130/170/115
f 122/156/116 131/166/116 127/167/116
f 123/157/117 127/167/117 128/171/117
f 124/162/118 128/168/118 129/169/118
f 125/164/119 129/169/119 130/170/119
f 126/159/120 130/170/120 131/166/120
f 127/167/121 131/166/121 132/172/121
f 128/171/122 127/167/122 132/173/122
f 129/169/123 128/168/123 132/174/123
f 130/170/124 129/169/124 132/175/124
f 131/166/125 130/170/125 132/176/125
o Icosphere.001
v -0.479711 13.608372 -1.119920
v 1.866041 10.830372 3.915987
v -4.433353 14.240907 3.770534
v -3.486462 19.119930 -1.146122
v 0.004464 18.181364 -5.678363
v 5.690155 12.892760 -1.090948
v 1.017060 14.169520 7.903955
v -3.961387 21.233719 5.359937
v -2.515004 23.461510 -1.105839
v 5.813894 17.367134 -2.458711
v 6.177688 13.521061 3.928794
v 2.488202 18.437683 2.543147
vt 0.181819 0.000000
vt 0.272728 0.157461
vt 0.090910 0.157461
vt 0.363637 0.000000
vt 0.454546 0.157461
vt 0.909091 0.000000
vt 1.000000 0.157461
vt 0.818182 0.157461
vt 0.727273 0.000000
vt 0.636364 0.157461
vt 0.545455 0.000000
vt 0.363637 0.314921
vt 0.181819 0.314921
vt 0.909091 0.314921
vt 0.727273 0.314921
vt 0.545455 0.314921
vt 0.000000 0.314921
vt 0.272728 0.472382
vt 0.090910 0.472382
vt 0.818182 0.472382
vt 0.636364 0.472382
vt 0.454546 0.472382
vn -0.4554 -0.8521 -0.2579
vn -0.1012 -0.8903 -0.4440
vn -0.7362 -0.4042 -0.5429
vn -0.7598 -0.4169 -0.4989
vn -0.0778 -0.6997 -0.7102
vn 0.5285 -0.8472 0.0547
vn -0.4128 -0.7397 0.5315
vn -0.9908 0.0899 -0.1015
vn -0.7619 0.1763 -0.6233
vn 0.4365 -0.2740 -0.8569
vn 0.4073 -0.6557 0.6357
vn -0.5996 -0.1387 0.7882
vn -0.9658 0.2174 -0.1411
vn 0.4186 0.7004 -0.5781
vn 0.9945 -0.0549 -0.0897
vn 0.5421 0.5786 0.6094
vn 0.5240 0.5904 0.6139
vn 0.5026 0.7765 0.3800
vn 0.5986 0.7661 0.2340
vn 0.7056 0.6241 0.3356
usemtl None
s off
f 133/177/126 134/178/126 135/179/126
f 134/178/127 133/180/127 138/181/127
f 133/182/128 135/183/128 136/184/128
f 133/185/129 136/184/129 137/186/129
f 133/187/130 137/186/130 138/181/130
f 134/178/131 138/181/131 143/188/131
f 135/179/132 134/178/132 139/189/132
f 136/184/133 135/183/133 140/190/133
f 137/186/134 136/184/134 141/191/134
f 138/181/135 137/186/135 142/192/135
f 134/178/136 143/188/136 139/189/136
f 135/179/137 139/189/137 140/193/137
f 136/184/138 140/190/138 141/191/138
f 137/186/139 141/191/139 142/192/139
f 138/181/140 142/192/140 143/188/140
f 139/189/141 143/188/141 144/194/141
f 140/193/142 139/189/142 144/195/142
f 141/191/143 140/190/143 144/196/143
f 142/192/144 141/191/144 144/197/144
f 143/188/145 142/192/145 144/198/145
o Icosphere.002
v 3.520925 9.381605 -1.916257
v 4.453444 12.378929 -0.764925
v 1.389695 11.213884 -0.105259
v 3.067060 9.741200 -2.889071
v 5.460040 9.891860 -5.219348
v 8.024344 11.626315 -3.956394
v 1.813098 14.422305 -0.945488
v 2.011594 12.856540 -2.289115
v 2.819693 11.935235 -5.399911
v 5.883442 13.100281 -6.059577
v 6.968878 14.741654 -3.356438
v 3.752213 14.932560 -4.248579
vt 0.181819 0.000000
vt 0.272728 0.157461
vt 0.090910 0.157461
vt 0.363637 0.000000
vt 0.454546 0.157461
vt 0.909091 0.000000
vt 1.000000 0.157461
vt 0.818182 0.157461
vt 0.727273 0.000000
vt 0.636364 0.157461
vt 0.545455 0.000000
vt 0.363637 0.314921
vt 0.181819 0.314921
vt 0.909091 0.314921
vt 0.727273 0.314921
vt 0.545455 0.314921
vt 0.000000 0.314921
vt 0.272728 0.472382
vt 0.090910 0.472382
vt 0.818182 0.472382
vt 0.636364 0.472382
vt 0.454546 0.472382
vn 0.3428 -0.4279 0.8363
vn 0.5437 -0.4430 0.7128
vn -0.6434 -0.7654 0.0172
vn -0.1932 -0.9462 -0.2596
vn 0.4976 -0.8525 0.1604
vn 0.6740 0.0871 0.7336
vn 0.1175 0.2370 0.9644
vn -0.8826 -0.2189 -0.4160
vn -0.4890 -0.6801 -0.5461
vn 0.5691 -0.2778 -0.7740
vn 0.3389 0.5079 0.7920
vn -0.9720 0.0695 -0.2245
vn -0.9439 -0.2891 -0.1596
vn -0.1175 -0.2370 -0.9644
vn 0.7681 0.3620 -0.5282
vn 0.0140 0.9869 0.1607
vn -0.8458 0.2816 -0.4531
vn -0.8535 0.3957 -0.3389
vn -0.3428 0.4279 -0.8363
vn 0.2046 0.7981 -0.5667
usemtl None
s off
f 145/199/146 146/200/146 147/201/146
f 146/200/147 145/202/147 150/203/147
f 145/204/148 147/205/148 148/206/148
f 145/207/149 148/206/149 149/208/149
f 145/209/150 149/208/150 150/203/150
f 146/200/151 150/203/151 155/210/151
f 147/201/152 146/200/152 151/211/152
f 148/206/153 147/205/153 152/212/153
f 149/208/154 148/206/154 153/213/154
f 150/203/155 149/208/155 154/214/155
f 146/200/156 155/210/156 151/211/156
f 147/201/157 151/211/157 152/215/157
f 148/206/158 152/212/158 153/213/158
f 149/208/159 153/213/159 154/214/159
f 150/203/160 154/214/160 155/210/160
f 151/211/161 155/210/161 156/216/161
f 152/215/162 151/211/162 156/217/162
f 153/213/163 152/212/163 156/218/163
f 154/214/164 153/213/164 156/219/164
f 155/210/165 154/214/165 156/220/165
o Icosphere.003
v -11.762320 0.833944 9.142521
v -10.278520 1.287231 9.634982
v -11.608082 0.904688 11.133724
v -13.061424 1.100213 10.805929
v -12.190659 1.699620 8.520273
v -10.848562 1.650849 8.750511
v -10.715464 2.001147 11.324963
v -12.442276 2.548509 11.480303
v -12.513108 2.817860 10.466419
v -11.164047 3.203826 8.506161
v -9.976479 2.770141 10.285279
v -11.274869 3.474650 10.730516
vt 0.181819 0.000000
vt 0.272728 0.157461
vt 0.090910 0.157461
vt 0.363637 0.000000
vt 0.454546 0.157461
vt 0.909091 0.000000
vt 1.000000 0.157461
vt 0.818182 0.157461
vt 0.727273 0.000000
vt 0.636364 0.157461
vt 0.545455 0.000000
vt 0.363637 0.314921
vt 0.181819 0.314921
vt 0.909091 0.314921
vt 0.727273 0.314921
vt 0.545455 0.314921
vt 0.000000 0.314921
vt 0.272728 0.472382
vt 0.090910 0.472382
vt 0.818182 0.472382
vt 0.636364 0.472382
vt 0.454546 0.472382
vn 0.2886 -0.9574 0.0117
vn 0.4063 -0.7228 -0.5590
vn -0.1434 -0.9886 0.0462
vn -0.6603 -0.6255 -0.4156
vn 0.1235 -0.5382 -0.8337
vn 0.8497 0.0568 -0.5242
vn 0.6618 -0.6138 0.4304
vn -0.2492 -0.3192 0.9143
vn -0.9267 0.2384 -0.2905
vn 0.1636 -0.1208 -0.9791
vn 0.8670 -0.3374 0.3667
vn 0.0270 -0.1931 0.9808
vn -0.9324 0.3277 0.1522
vn -0.7524 0.5096 -0.4175
vn 0.8382 0.0855 -0.5386
vn 0.5064 0.4810 0.7157
vn 0.2165 0.4348 0.8741
vn -0.4950 0.8306 0.2552
vn -0.4428 0.8871 -0.1301
vn 0.4523 0.8877 -0.0855
usemtl None
s off
f 157/221/166 158/222/166 159/223/166
f 158/222/167 157/224/167 162/225/167
f 157/226/168 159/227/168 160/228/168
f 157/229/169 160/228/169 161/230/169
f 157/231/170 161/230/170 162/225/170
f 158/222/171 162/225/171 167/232/171
f 159/223/172 158/222/172 163/233/172
f 160/228/173 159/227/173 164/234/173
f 161/230/174 160/228/174 165/235/174
f 162/225/175 161/230/175 166/236/175
f 158/222/176 167/232/176 163/233/176
f 159/223/177 163/233/177 164/237/177
f 160/228/178 164/234/178 165/235/178
f 161/230/179 165/235/179 166/236/179
f 162/225/180 166/236/180 167/232/180
f 163/233/181 167/232/181 168/238/181
f 164/237/182 163/233/182 168/239/182
f 165/235/183 164/234/183 168/240/183
f 166/236/184 165/235/184 168/241/184
f 167/232/185 166/236/185 168/242/185
o Cylinder.001
v -11.950603 0.739229 9.819934
v -11.950603 1.052671 9.819934
v -11.801553 0.739229 9.928226
v -11.801553 1.052671 9.928226
v -11.858485 0.739229 10.103445
v -11.858485 1.052671 10.103445
v -12.042722 0.739229 10.103445
v -12.042722 1.052671 10.103445
v -12.099654 0.739229 9.928226
v -12.099654 1.052671 9.928226
vt 1.000000 0.500000
vt 1.000000 1.000000
vt 0.800000 1.000000
vt 0.800000 0.500000
vt 0.600000 1.000000
vt 0.600000 0.500000
vt 0.400000 1.000000
vt 0.400000 0.500000
vt 0.478254 0.324164
vt 0.250000 0.490000
vt 0.021746 0.324164
vt 0.108932 0.055836
vt 0.391068 0.055836
vt 0.200000 1.000000
vt 0.200000 0.500000
vt 0.000000 1.000000
vt 0.000000 0.500000
vt 0.750000 0.490000
vt 0.978254 0.324164
vt 0.891068 0.055836
vt 0.608932 0.055836
vt 0.521746 0.324164
vn 0.5878 0.0000 -0.8090
vn 0.9511 0.0000 0.3090
vn 0.0000 0.0000 1.0000
vn 0.0000 1.0000 0.0000
vn -0.9511 0.0000 0.3090
vn -0.5878 0.0000 -0.8090
vn 0.0000 -1.0000 -0.0000
usemtl None
s off
f 169/243/186 170/244/186 172/245/186 171/246/186
f 171/246/187 172/245/187 174/247/187 173/248/187
f 173/248/188 174/247/188 176/249/188 175/250/188
f 172/251/189 170/252/189 178/253/189 176/254/189 174/255/189
f 175/250/190 176/249/190 178/256/190 177/257/190
f 177/257/191 178/256/191 170/258/191 169/259/191
f 169/260/192 171/261/192 173/262/192 175/263/192 177/264/192
